# xmcd
#
# Track frame offsets:
#	150
#	16948
#	31617
#	47542
#	62973
#	82468
#	99958
#	118206
#
# Disc length: 1608 seconds
#
# Revision: 1
# Processed by: cddbd v1.5.2PL0 Copyright (c) Steve Scherf et al.
# Submitted via: audiograbber 1.83.01
#
DISCID=61064608
DTITLE=Various Artist - CDX 585
DYEAR=2013
DGENRE=Country
TTITLE0=Blake Shelton - Doin' What She Likes
TTITLE1=Kelleigh Bannen - Famous
TTITLE2=Brad Paisley - The Mona Lisa (Radio Edit)
TTITLE3=Hannah Bethel - Medicine
TTITLE4=CDX-585-05-Bernie_Nelson- - Scarecrow
TTITLE5=Little River Band - You Dream I'll Drive (Radio Edit)
TTITLE6=Julie Ingram  - One Chance
TTITLE7=Lou Diamond Phillips - VFW PSA
EXTD=
EXTT0=
EXTT1=
EXTT2=
EXTT3=
EXTT4=
EXTT5=
EXTT6=
EXTT7=
PLAYORDER=
